<?xml version="1.0" standalone="no"?>
<!DOCTYPE svg PUBLIC "-//W3C//DTD SVG 20010904//EN"
 "http://www.w3.org/TR/2001/REC-SVG-20010904/DTD/svg10.dtd">
<svg version="1.0" xmlns="http://www.w3.org/2000/svg"
 width="984.000000pt" height="984.000000pt" viewBox="0 0 984.000000 984.000000"
 preserveAspectRatio="xMidYMid meet">
<metadata>
Created by potrace 1.14, written by Peter Selinger 2001-2017
</metadata>
<g transform="translate(0.000000,984.000000) scale(0.100000,-0.100000)"
fill="#000000" stroke="none">
<path d="M590 9281 c-1 -89 -1 -4484 0 -4543 l0 -47 293 1 292 1 3 -176 2
-177 -37 -1 c-21 0 -154 0 -295 0 l-258 0 0 -107 c-1 -118 -1 -1708 0 -1732 0
-13 228 -15 1992 -15 l1993 0 0 -650 0 -650 -1157 0 c-1024 0 -1158 -2 -1159
-15 -5 -94 -2 -363 4 -367 4 -2 3 -12 -1 -21 -8 -15 -8 -87 -2 -117 1 -5 1
-12 0 -15 -4 -12 -5 -70 0 -71 16 -3 5288 -4 5301 -1 15 3 17 33 15 305 l-1
302 -1165 1 c-641 1 -1172 2 -1180 3 -13 1 -15 80 -15 648 l1 648 1987 1
c1092 0 1990 4 1994 8 4 4 8 808 8 1786 0 1771 0 1779 -20 1782 -11 2 -142 3
-292 2 -268 -1 -271 -1 -275 20 -1 12 -3 100 -3 196 l1 175 294 5 295 5 0
1440 0 1440 -4308 1 -4307 0 0 -65z"/>
</g>
</svg>
