<?xml version="1.0" standalone="no"?>
<!DOCTYPE svg PUBLIC "-//W3C//DTD SVG 20010904//EN"
 "http://www.w3.org/TR/2001/REC-SVG-20010904/DTD/svg10.dtd">
<svg version="1.0" xmlns="http://www.w3.org/2000/svg"
 width="246.000000pt" height="246.000000pt" viewBox="0 0 246.000000 246.000000"
 preserveAspectRatio="xMidYMid meet">
<metadata>
Created by potrace 1.14, written by Peter Selinger 2001-2017
</metadata>
<g transform="translate(0.000000,246.000000) scale(0.100000,-0.100000)"
fill="#000000" stroke="none">
<path d="M150 1755 l0 -585 745 0 745 0 0 60 0 60 -670 0 -670 0 0 445 0 445
925 0 925 0 0 -225 0 -225 -655 0 -655 0 0 -60 0 -60 733 2 732 3 3 363 2 362
-1080 0 -1080 0 0 -585z"/>
<path d="M570 1670 l0 -60 80 0 80 0 0 60 0 60 -80 0 -80 0 0 -60z"/>
<path d="M2150 1150 l0 -370 -922 2 -923 3 -3 153 -3 152 -74 0 -75 0 0 -235
0 -235 500 0 500 0 0 -160 0 -160 -290 0 -290 0 0 -80 0 -80 665 0 665 0 0 80
0 80 -295 0 -295 0 0 160 0 160 500 0 500 0 0 450 0 450 -80 0 -80 0 0 -370z"/>
<path d="M1750 1230 l0 -60 75 0 75 0 0 60 0 60 -75 0 -75 0 0 -60z"/>
</g>
</svg>
