<?xml version="1.0" encoding="UTF-8" standalone="no"?>
<!-- Created with Inkscape (http://www.inkscape.org/) -->

<svg
   width="104.99783mm"
   height="104.99783mm"
   viewBox="0 0 104.99783 104.99783"
   version="1.1"
   id="svg1"
   xmlSpace="preserve"
   xmlnsSvg="http://www.w3.org/2000/svg"
   xmlns:xlink="http://www.w3.org/1999/xlink"
   xmlns="http://www.w3.org/2000/svg"
   xmlns:svg="http://www.w3.org/2000/svg">
  <defs
     id="defs1">
    <rect
       x="-13.300704"
       y="617.65143"
       width="251.0508"
       height="62.34705"
       id="rect3702" />
    <linearGradient
       id="linearGradient3632">
      <stop
         style="stop-color:#00011a;stop-opacity:1;"
         offset="0.21449275"
         id="stop3628" />
      <stop
         style="stop-color:#015498;stop-opacity:1;"
         offset="0.99999982"
         id="stop3630" />
    </linearGradient>
    <linearGradient
       xlink:href="#linearGradient3632"
       id="linearGradient3634"
       x1="18.943497"
       y1="-137.50237"
       x2="71.627518"
       y2="-137.6552"
       gradientUnits="userSpaceOnUse"
       gradientTransform="matrix(-0.00290932,0.99647789,-1.0028967,-0.0028907,-85.786538,33.224657)" />
  </defs>
  <path
     id="rect295"
     style="fill:url(#linearGradient3634);stroke-width:0.2645"
     d="M 104.99782,0 V 104.99782 H 0 V 0 Z" />
  <g
     id="layer1"
     transform="matrix(1.0029009,0,0,0.99648208,-53.416367,-43.401372)">
    <path
       id="path35"
       style="opacity:1;fill:#1a305b;fill-opacity:1;stroke-width:0.252711"
       d="m 80.432411,59.742351 c 0,8.015473 0,16.030945 0,24.046417 11.337349,0 22.674689,0 34.012049,0 0.22363,0.814525 -0.25248,0.936697 -0.97047,0.819552 -11.01386,0 -22.027721,0 -33.041579,0 0,3.956475 0,7.912949 0,11.869425 16.397582,0 32.795159,0 49.192739,0 0,-7.652894 0,-15.305789 0,-22.958683 -11.15727,0 -22.31456,0 -33.471836,0 -0.223637,-0.814524 0.25248,-0.936697 0.970474,-0.819552 10.833792,0 21.667572,0 32.501362,0 0,-4.488464 0,-8.976928 0,-13.465392 -16.39758,0 -32.795157,0 -49.192739,0 0,0.16941 0,0.338822 0,0.508233 z" />
    <path
       style="opacity:0.216279;fill:#f5f5f5;stroke-width:0.264583"
       d="M 76.486142,55.217903 H 133.54818 V 74.347718 H 94.727287 V 71.354299 H 129.52578 V 59.287081 H 80.508549 v 23.760262 h 35.359761 v 2.993416 H 76.486142 Z"
       id="path24" />
    <path
       style="opacity:0.216279;fill:#f5f5f5;stroke-width:0.264583"
       d="m 87.524374,71.354299 h 4.209494 v 2.993419 h -4.209494 z"
       id="path25" />
    <path
       style="opacity:0.216279;fill:#f5f5f5;stroke-width:0.264583"
       d="m 118.76818,83.047343 h 4.02241 v 2.993416 h -4.02241 z"
       id="path26" />
    <path
       style="opacity:0.216279;fill:#f5f5f5;stroke-width:0.264583"
       d="m 129.52578,76.96696 h 4.0224 v 23.66672 h -26.3795 v 8.60608 h 15.62191 v 4.0224 H 87.524374 v -4.0224 h 15.341266 v -8.60608 H 76.486142 V 88.379369 h 4.022407 v 8.044812 h 49.017231 z"
       id="path27" />
    <path
       style="opacity:1;fill:#f5f5f5;stroke-width:0.353553"
       d="m 54.977552,223.97607 v -7.60139 H 83.96893 112.96031 V 200.11122 183.84776 H 63.10928 13.258252 v -23.15774 -23.15775 h 7.424621 7.424622 v 15.20279 15.2028 h 92.807765 92.80776 V 131.16831 94.398755 h 7.42463 7.42462 v 44.724505 44.7245 h -49.85103 -49.85103 v 16.26346 16.26346 h 29.52171 29.52171 v 7.60139 7.6014 H 121.44559 54.977552 Z"
       id="path31"
       transform="matrix(0.26458333,0,0,0.26458333,73.025002,51.990623)" />
    <path
       style="opacity:1;fill:#f5f5f5;stroke-width:0.353553"
       d="M 13.258252,70.533901 V 12.374369 H 120.91526 228.57227 V 48.436815 84.49926 H 155.38672 82.201163 v -5.656854 -5.656854 h 65.760927 65.76093 V 50.381358 27.577164 H 120.91526 28.107495 v 44.901281 44.901285 h 66.82159 66.821595 v 5.65685 5.65685 H 87.504464 13.258252 Z"
       id="path32"
       transform="matrix(0.26458333,0,0,0.26458333,73.025002,51.990623)" />
    <path
       style="opacity:1;fill:#f5f5f5;stroke-width:0.353553"
       d="m 54.977552,78.842406 v -5.656854 h 7.778175 7.778174 v 5.656854 5.656854 h -7.778174 -7.778175 z"
       id="path33"
       transform="matrix(0.26458333,0,0,0.26458333,73.025002,51.990623)" />
    <path
       style="opacity:1;fill:#f5f5f5;stroke-width:0.353553"
       d="m 173.06438,123.03658 v -5.65685 h 7.42463 7.42462 v 5.65685 5.65685 h -7.42462 -7.42463 z"
       id="path34"
       transform="matrix(0.26458333,0,0,0.26458333,73.025002,51.990623)" />
  </g>
  <g
     aria-label="Setapps"
     transform="matrix(0.3532693,0,0,0.35100828,15.486073,-142.12508)"
     id="text3700"
     style="font-size:53.3333px;white-space:pre;shape-inside:url(#rect3702);fill:#f5f5f5">
    <path
       d="m 20.084616,655.24223 q 0,2.26562 -1.067708,4.47916 -1.041666,2.21354 -2.942707,3.75 -2.083332,1.66667 -4.869789,2.60417 -2.7604145,0.9375 -6.6666622,0.9375 -4.19270585,0 -7.5520788,-0.78125 -3.3333314,-0.78125 -6.796871,-2.31771 v -6.45833 h 0.3645831 q 2.9427066,2.44792 6.796871,3.77604 3.8541643,1.32812 7.239579,1.32812 4.7916638,0 7.4479119,-1.79687 2.68229,-1.79687 2.68229,-4.79166 0,-2.57813 -1.276041,-3.80208 -1.249999,-1.22396 -3.8281222,-1.90105 -1.9531239,-0.52083 -4.2447892,-0.85937 -2.2656236,-0.33854 -4.81770544,-0.85937 -5.15624696,-1.09375 -7.65624546,-3.72396 -2.4739568,-2.65625 -2.4739568,-6.90104 0,-4.86979 4.1145808,-7.96874 4.1145809,-3.125 10.4427022,-3.125 4.0885392,0 7.4999951,0.78125 3.411457,0.78125 6.041663,1.92708 v 6.09375 h -0.364583 q -2.21354,-1.875 -5.83333,-3.09896 -3.5937474,-1.25 -7.3697868,-1.25 -4.14062253,0 -6.6666627,1.71875 -2.4999985,1.71875 -2.4999985,4.42708 0,2.42187 1.2499993,3.80208 1.2499992,1.38021 4.401039,2.10938 1.6666657,0.36458 4.7395805,0.88541 3.0729148,0.52083 5.2083302,1.06771 4.322914,1.14583 6.510413,3.46354 2.187499,2.31771 2.187499,6.48437 z"
       id="path5378" />
    <path
       d="M 52.324181,652.27348 H 30.891902 q 0,2.68229 0.807291,4.6875 0.807291,1.97916 2.213541,3.25521 1.354166,1.24999 3.203123,1.87499 1.874999,0.625 4.114581,0.625 2.968748,0 5.963538,-1.17187 3.020831,-1.19792 4.296872,-2.34375 h 0.260417 v 5.33854 q -2.473957,1.04167 -5.052081,1.74479 -2.578123,0.70312 -5.416663,0.70312 -7.239579,0 -11.302077,-3.90624 -4.062497,-3.93229 -4.062497,-11.14583 0,-7.13541 3.880206,-11.32812 3.906247,-4.1927 10.26041,-4.1927 5.885413,0 9.062495,3.43749 3.203123,3.4375 3.203123,9.76562 z m -4.765622,-3.75 q -0.02604,-3.85416 -1.953124,-5.96353 -1.901041,-2.10938 -5.807288,-2.10938 -3.93229,0 -6.276038,2.31771 -2.317707,2.31771 -2.630207,5.7552 z"
       id="path5380" />
    <path
       d="m 74.850208,666.04952 q -1.380208,0.36458 -3.020832,0.59895 -1.614582,0.23438 -2.890623,0.23438 -4.453122,0 -6.770829,-2.39583 -2.317707,-2.39584 -2.317707,-7.68229 v -15.46874 h -3.30729 v -4.11458 h 3.30729 v -8.35937 h 4.89583 v 8.35937 h 10.104161 v 4.11458 H 64.746047 v 13.2552 q 0,2.29166 0.104167,3.59375 0.104166,1.27604 0.729166,2.39583 0.572916,1.04166 1.562499,1.53646 1.015625,0.46875 3.072915,0.46875 1.197916,0 2.499998,-0.33855 1.302083,-0.36458 1.874999,-0.59895 h 0.260417 z"
       id="path5382" />
    <path
       d="m 98.079358,658.67973 v -6.09375 q -1.901041,0.15625 -4.114581,0.44271 -2.21354,0.26042 -3.359373,0.625 -1.406249,0.44271 -2.161457,1.30208 -0.729166,0.83333 -0.729166,2.21354 0,0.91146 0.15625,1.48438 0.15625,0.57291 0.781249,1.09375 0.598958,0.52083 1.432291,0.78125 0.833333,0.23437 2.604165,0.23437 1.406249,0 2.83854,-0.57292 1.458333,-0.57291 2.552082,-1.51041 z m 0,4.53125 q -0.755208,0.57291 -1.874999,1.3802 -1.119791,0.80729 -2.109374,1.27604 -1.380207,0.625 -2.864581,0.91146 -1.484374,0.3125 -3.255207,0.3125 -4.166664,0 -6.979162,-2.57812 -2.812499,-2.57813 -2.812499,-6.58854 0,-3.20312 1.432291,-5.23437 1.432291,-2.03125 4.062498,-3.20312 2.604165,-1.17188 6.458329,-1.66667 3.854165,-0.49479 7.994787,-0.72917 v -0.15625 q 0,-2.42187 -1.979165,-3.33333 -1.979166,-0.9375 -5.83333,-0.9375 -2.317707,0 -4.947914,0.83334 -2.630207,0.80729 -3.776039,1.24999 h -0.859375 v -7.05728 q 1.484374,-0.39063 4.817706,-0.91146 3.359373,-0.54688 6.718746,-0.54688 7.99479,0 11.53645,2.47396 3.56771,2.44792 3.56771,7.70833 v 19.89582 h -9.296872 z"
       style="font-weight:bold;-inkscape-font-specification:'sans-serif Bold'"
       id="path5384" />
    <path
       d="m 146.51684,651.2839 q 0,3.61979 -1.1198,6.58854 -1.09375,2.96874 -2.89062,4.89583 -1.875,2.03125 -4.24479,3.07291 -2.36979,1.04167 -5.07812,1.04167 -2.5,0 -4.24479,-0.54688 -1.74479,-0.52083 -3.56771,-1.48437 v 12.18749 h -9.37499 v -39.97393 h 9.37499 v 3.04687 q 2.16146,-1.71875 4.40104,-2.78646 2.26563,-1.0677 5.20833,-1.0677 5.46875,0 8.48958,4.01041 3.04688,4.01041 3.04688,11.01562 z m -9.66146,0.18229 q 0,-4.27083 -1.45833,-6.19791 -1.45833,-1.92708 -4.60937,-1.92708 -1.32813,0 -2.73438,0.41666 -1.40624,0.39063 -2.68229,1.14583 v 14.71354 q 0.9375,0.36458 2.00521,0.46875 1.06771,0.10416 2.10938,0.10416 3.72395,0 5.54687,-2.16145 1.82291,-2.1875 1.82291,-6.5625 z"
       style="font-weight:bold;-inkscape-font-specification:'sans-serif Bold'"
       id="path5386" />
    <path
       d="m 183.80848,651.2839 q 0,3.61979 -1.11979,6.58854 -1.09375,2.96874 -2.89063,4.89583 -1.875,2.03125 -4.24479,3.07291 -2.36979,1.04167 -5.07812,1.04167 -2.5,0 -4.24479,-0.54688 -1.74479,-0.52083 -3.5677,-1.48437 v 12.18749 h -9.375 v -39.97393 h 9.375 v 3.04687 q 2.16145,-1.71875 4.40103,-2.78646 2.26563,-1.0677 5.20833,-1.0677 5.46875,0 8.48958,4.01041 3.04688,4.01041 3.04688,11.01562 z m -9.66146,0.18229 q 0,-4.27083 -1.45833,-6.19791 -1.45833,-1.92708 -4.60937,-1.92708 -1.32813,0 -2.73437,0.41666 -1.40625,0.39063 -2.68229,1.14583 v 14.71354 q 0.93749,0.36458 2.0052,0.46875 1.06771,0.10416 2.10938,0.10416 3.72395,0 5.54687,-2.16145 1.82291,-2.1875 1.82291,-6.5625 z"
       style="font-weight:bold;-inkscape-font-specification:'sans-serif Bold'"
       id="path5388" />
    <path
       d="m 215.99595,657.0391 q 0,4.53125 -4.06249,7.31771 -4.0625,2.76041 -11.11979,2.76041 -3.90625,0 -7.08333,-0.72916 -3.17708,-0.72917 -5.10416,-1.61459 v -7.70832 h 0.85937 q 0.70313,0.49479 1.61459,1.09374 0.93749,0.57292 2.6302,1.25 1.45833,0.59896 3.30729,1.04167 1.84896,0.41667 3.95833,0.41667 2.76042,0 4.08854,-0.59896 1.32813,-0.625 1.32813,-1.82292 0,-1.0677 -0.78125,-1.53645 -0.78125,-0.4948 -2.96875,-0.9375 -1.04167,-0.23438 -2.83854,-0.4948 -1.77083,-0.28645 -3.22917,-0.67708 -3.98437,-1.04166 -5.91145,-3.22916 -1.92708,-2.21354 -1.92708,-5.49479 0,-4.21875 3.98437,-7.00521 4.01041,-2.81249 10.93749,-2.81249 3.28125,0 6.27604,0.67708 3.02083,0.65104 4.71354,1.40625 v 7.39583 h -0.80729 q -2.08333,-1.43229 -4.76562,-2.31771 -2.65625,-0.91146 -5.39063,-0.91146 -2.26562,0 -3.82812,0.625 -1.53646,0.625 -1.53646,1.77083 0,1.04167 0.70313,1.58855 0.70312,0.54687 3.30729,1.09374 1.43229,0.28646 3.07291,0.57292 1.66667,0.26042 3.33333,0.67708 3.69792,0.96354 5.46875,3.04688 1.77083,2.05729 1.77083,5.15624 z"
       style="font-weight:bold;-inkscape-font-specification:'sans-serif Bold'"
       id="path5390" />
  </g>
</svg>
